<?xml version="1.0" encoding="UTF-8"?>
<svg xmlns="http://www.w3.org/2000/svg" xmlns:xlink="http://www.w3.org/1999/xlink" width="504pt" height="504pt" viewBox="0 0 504 504">
<defs>
<g>
<g id="glyph-0-0">
<path d="M 0.28125 0 L 0.28125 -6.3125 L 5.296875 -6.3125 L 5.296875 0 Z M 4.5 -0.796875 L 4.5 -5.515625 L 1.078125 -5.515625 L 1.078125 -0.796875 Z M 4.5 -0.796875 "/>
</g>
<g id="glyph-0-1">
<path d="M 0.84375 -4.359375 L 0.84375 -4.953125 C 1.394531 -5.003906 1.78125 -5.09375 2 -5.21875 C 2.226562 -5.34375 2.394531 -5.644531 2.5 -6.125 L 3.109375 -6.125 L 3.109375 0 L 2.296875 0 L 2.296875 -4.359375 Z M 0.84375 -4.359375 "/>
</g>
<g id="glyph-0-2">
<path d="M 2.578125 -6.171875 C 3.265625 -6.171875 3.742188 -5.992188 4.015625 -5.640625 C 4.285156 -5.285156 4.421875 -4.921875 4.421875 -4.546875 L 3.65625 -4.546875 C 3.601562 -4.785156 3.53125 -4.972656 3.4375 -5.109375 C 3.25 -5.367188 2.960938 -5.5 2.578125 -5.5 C 2.148438 -5.5 1.804688 -5.296875 1.546875 -4.890625 C 1.296875 -4.492188 1.15625 -3.925781 1.125 -3.1875 C 1.300781 -3.445312 1.523438 -3.640625 1.796875 -3.765625 C 2.046875 -3.878906 2.320312 -3.9375 2.625 -3.9375 C 3.132812 -3.9375 3.582031 -3.769531 3.96875 -3.4375 C 4.351562 -3.113281 4.546875 -2.625 4.546875 -1.96875 C 4.546875 -1.414062 4.363281 -0.921875 4 -0.484375 C 3.632812 -0.0546875 3.117188 0.15625 2.453125 0.15625 C 1.867188 0.15625 1.367188 -0.0625 0.953125 -0.5 C 0.535156 -0.9375 0.328125 -1.671875 0.328125 -2.703125 C 0.328125 -3.460938 0.421875 -4.109375 0.609375 -4.640625 C 0.960938 -5.660156 1.617188 -6.171875 2.578125 -6.171875 Z M 2.515625 -0.53125 C 2.921875 -0.53125 3.222656 -0.664062 3.421875 -0.9375 C 3.628906 -1.207031 3.734375 -1.53125 3.734375 -1.90625 C 3.734375 -2.21875 3.640625 -2.515625 3.453125 -2.796875 C 3.273438 -3.085938 2.953125 -3.234375 2.484375 -3.234375 C 2.148438 -3.234375 1.859375 -3.125 1.609375 -2.90625 C 1.359375 -2.6875 1.234375 -2.351562 1.234375 -1.90625 C 1.234375 -1.519531 1.34375 -1.191406 1.5625 -0.921875 C 1.789062 -0.660156 2.109375 -0.53125 2.515625 -0.53125 Z M 2.515625 -0.53125 "/>
</g>
<g id="glyph-0-3">
<path d="M 2.90625 -2.171875 L 2.90625 -4.96875 L 0.9375 -2.171875 Z M 2.921875 0 L 2.921875 -1.5 L 0.21875 -1.5 L 0.21875 -2.265625 L 3.046875 -6.171875 L 3.6875 -6.171875 L 3.6875 -2.171875 L 4.59375 -2.171875 L 4.59375 -1.5 L 3.6875 -1.5 L 3.6875 0 Z M 2.921875 0 "/>
</g>
<g id="glyph-0-4">
<path d="M 2.390625 -3.578125 C 2.734375 -3.578125 3 -3.671875 3.1875 -3.859375 C 3.382812 -4.046875 3.484375 -4.273438 3.484375 -4.546875 C 3.484375 -4.773438 3.390625 -4.984375 3.203125 -5.171875 C 3.015625 -5.359375 2.734375 -5.453125 2.359375 -5.453125 C 1.992188 -5.453125 1.726562 -5.359375 1.5625 -5.171875 C 1.394531 -4.984375 1.3125 -4.757812 1.3125 -4.5 C 1.3125 -4.207031 1.414062 -3.976562 1.625 -3.8125 C 1.84375 -3.65625 2.097656 -3.578125 2.390625 -3.578125 Z M 2.4375 -0.53125 C 2.800781 -0.53125 3.097656 -0.625 3.328125 -0.8125 C 3.566406 -1.007812 3.6875 -1.300781 3.6875 -1.6875 C 3.6875 -2.082031 3.5625 -2.382812 3.3125 -2.59375 C 3.070312 -2.800781 2.765625 -2.90625 2.390625 -2.90625 C 2.015625 -2.90625 1.707031 -2.796875 1.46875 -2.578125 C 1.238281 -2.367188 1.125 -2.078125 1.125 -1.703125 C 1.125 -1.390625 1.226562 -1.113281 1.4375 -0.875 C 1.65625 -0.644531 1.988281 -0.53125 2.4375 -0.53125 Z M 1.34375 -3.28125 C 1.125 -3.375 0.957031 -3.476562 0.84375 -3.59375 C 0.613281 -3.820312 0.5 -4.125 0.5 -4.5 C 0.5 -4.957031 0.664062 -5.347656 1 -5.671875 C 1.332031 -6.003906 1.800781 -6.171875 2.40625 -6.171875 C 3 -6.171875 3.460938 -6.015625 3.796875 -5.703125 C 4.128906 -5.390625 4.296875 -5.023438 4.296875 -4.609375 C 4.296875 -4.222656 4.195312 -3.914062 4 -3.6875 C 3.894531 -3.550781 3.726562 -3.414062 3.5 -3.28125 C 3.757812 -3.164062 3.960938 -3.03125 4.109375 -2.875 C 4.378906 -2.59375 4.515625 -2.222656 4.515625 -1.765625 C 4.515625 -1.222656 4.332031 -0.765625 3.96875 -0.390625 C 3.601562 -0.015625 3.085938 0.171875 2.421875 0.171875 C 1.828125 0.171875 1.320312 0.0078125 0.90625 -0.3125 C 0.488281 -0.632812 0.28125 -1.109375 0.28125 -1.734375 C 0.28125 -2.085938 0.367188 -2.394531 0.546875 -2.65625 C 0.722656 -2.925781 0.988281 -3.132812 1.34375 -3.28125 Z M 1.34375 -3.28125 "/>
</g>
<g id="glyph-0-5">
<path d="M 4.59375 -6.046875 L 4.59375 -5.375 C 4.394531 -5.175781 4.128906 -4.835938 3.796875 -4.359375 C 3.472656 -3.890625 3.1875 -3.378906 2.9375 -2.828125 C 2.6875 -2.296875 2.5 -1.8125 2.375 -1.375 C 2.289062 -1.082031 2.179688 -0.625 2.046875 0 L 1.203125 0 C 1.390625 -1.175781 1.816406 -2.34375 2.484375 -3.5 C 2.878906 -4.1875 3.289062 -4.773438 3.71875 -5.265625 L 0.328125 -5.265625 L 0.328125 -6.046875 Z M 4.59375 -6.046875 "/>
</g>
<g id="glyph-0-6">
<path d="M 0.28125 0 C 0.300781 -0.53125 0.40625 -0.988281 0.59375 -1.375 C 0.789062 -1.769531 1.164062 -2.128906 1.71875 -2.453125 L 2.546875 -2.921875 C 2.910156 -3.140625 3.164062 -3.328125 3.3125 -3.484375 C 3.550781 -3.710938 3.671875 -3.984375 3.671875 -4.296875 C 3.671875 -4.648438 3.5625 -4.929688 3.34375 -5.140625 C 3.132812 -5.359375 2.847656 -5.46875 2.484375 -5.46875 C 1.960938 -5.46875 1.597656 -5.265625 1.390625 -4.859375 C 1.285156 -4.648438 1.226562 -4.351562 1.21875 -3.96875 L 0.421875 -3.96875 C 0.429688 -4.5 0.53125 -4.9375 0.71875 -5.28125 C 1.050781 -5.875 1.644531 -6.171875 2.5 -6.171875 C 3.195312 -6.171875 3.707031 -5.976562 4.03125 -5.59375 C 4.363281 -5.21875 4.53125 -4.796875 4.53125 -4.328125 C 4.53125 -3.835938 4.351562 -3.414062 4 -3.0625 C 3.800781 -2.863281 3.441406 -2.617188 2.921875 -2.328125 L 2.34375 -2 C 2.0625 -1.84375 1.835938 -1.695312 1.671875 -1.5625 C 1.390625 -1.3125 1.210938 -1.035156 1.140625 -0.734375 L 4.5 -0.734375 L 4.5 0 Z M 0.28125 0 "/>
</g>
<g id="glyph-0-7">
<path d="M 0.859375 -6.3125 L 1.734375 -6.3125 L 1.734375 0 L 0.859375 0 Z M 0.859375 -6.3125 "/>
</g>
<g id="glyph-0-8">
<path d="M 1.171875 -6.3125 L 2.984375 -0.9375 L 4.765625 -6.3125 L 5.734375 -6.3125 L 3.421875 0 L 2.515625 0 L 0.21875 -6.3125 Z M 1.171875 -6.3125 "/>
</g>
<g id="glyph-0-9">
<path d="M 0.125 -2.609375 L 5.140625 -4.5625 L 5.140625 -3.796875 L 1.03125 -2.25 L 5.140625 -0.6875 L 5.140625 0.078125 L 0.125 -1.890625 Z M 0.125 -2.609375 "/>
</g>
<g id="glyph-0-10">
</g>
<g id="glyph-0-11">
<path d="M 1.171875 -1.484375 C 1.191406 -1.054688 1.351562 -0.757812 1.65625 -0.59375 C 1.820312 -0.507812 2 -0.46875 2.1875 -0.46875 C 2.5625 -0.46875 2.878906 -0.617188 3.140625 -0.921875 C 3.398438 -1.234375 3.582031 -1.863281 3.6875 -2.8125 C 3.519531 -2.539062 3.304688 -2.347656 3.046875 -2.234375 C 2.796875 -2.128906 2.523438 -2.078125 2.234375 -2.078125 C 1.640625 -2.078125 1.171875 -2.257812 0.828125 -2.625 C 0.484375 -2.988281 0.3125 -3.460938 0.3125 -4.046875 C 0.3125 -4.609375 0.476562 -5.097656 0.8125 -5.515625 C 1.15625 -5.941406 1.660156 -6.15625 2.328125 -6.15625 C 3.222656 -6.15625 3.84375 -5.753906 4.1875 -4.953125 C 4.375 -4.503906 4.46875 -3.945312 4.46875 -3.28125 C 4.46875 -2.53125 4.351562 -1.863281 4.125 -1.28125 C 3.75 -0.3125 3.113281 0.171875 2.21875 0.171875 C 1.625 0.171875 1.171875 0.0117188 0.859375 -0.296875 C 0.546875 -0.609375 0.390625 -1.003906 0.390625 -1.484375 Z M 2.34375 -2.75 C 2.644531 -2.75 2.921875 -2.847656 3.171875 -3.046875 C 3.429688 -3.253906 3.5625 -3.609375 3.5625 -4.109375 C 3.5625 -4.566406 3.445312 -4.90625 3.21875 -5.125 C 2.988281 -5.34375 2.695312 -5.453125 2.34375 -5.453125 C 1.96875 -5.453125 1.664062 -5.320312 1.4375 -5.0625 C 1.21875 -4.8125 1.109375 -4.476562 1.109375 -4.0625 C 1.109375 -3.65625 1.207031 -3.332031 1.40625 -3.09375 C 1.601562 -2.863281 1.914062 -2.75 2.34375 -2.75 Z M 2.34375 -2.75 "/>
</g>
<g id="glyph-0-12">
<path d="M 2.375 -6.15625 C 3.175781 -6.15625 3.753906 -5.828125 4.109375 -5.171875 C 4.378906 -4.660156 4.515625 -3.960938 4.515625 -3.078125 C 4.515625 -2.242188 4.390625 -1.554688 4.140625 -1.015625 C 3.785156 -0.222656 3.195312 0.171875 2.375 0.171875 C 1.632812 0.171875 1.082031 -0.148438 0.71875 -0.796875 C 0.425781 -1.328125 0.28125 -2.046875 0.28125 -2.953125 C 0.28125 -3.648438 0.367188 -4.25 0.546875 -4.75 C 0.878906 -5.6875 1.488281 -6.15625 2.375 -6.15625 Z M 2.375 -0.53125 C 2.769531 -0.53125 3.085938 -0.707031 3.328125 -1.0625 C 3.566406 -1.425781 3.6875 -2.085938 3.6875 -3.046875 C 3.6875 -3.753906 3.597656 -4.332031 3.421875 -4.78125 C 3.253906 -5.226562 2.921875 -5.453125 2.421875 -5.453125 C 1.972656 -5.453125 1.640625 -5.238281 1.421875 -4.8125 C 1.210938 -4.382812 1.109375 -3.753906 1.109375 -2.921875 C 1.109375 -2.296875 1.175781 -1.789062 1.3125 -1.40625 C 1.519531 -0.820312 1.875 -0.53125 2.375 -0.53125 Z M 2.375 -0.53125 "/>
</g>
<g id="glyph-0-13">
<path d="M 0.546875 -6.3125 L 1.296875 -6.3125 L 1.296875 -2.640625 L 3.28125 -4.59375 L 4.265625 -4.59375 L 2.5 -2.875 L 4.359375 0 L 3.375 0 L 1.9375 -2.3125 L 1.296875 -1.734375 L 1.296875 0 L 0.546875 0 Z M 0.546875 -6.3125 "/>
</g>
<g id="glyph-0-14">
<path d="M 2.1875 -4.6875 C 2.550781 -4.6875 2.867188 -4.597656 3.140625 -4.421875 C 3.285156 -4.316406 3.429688 -4.171875 3.578125 -3.984375 L 3.578125 -4.5625 L 4.296875 -4.5625 L 4.296875 -0.375 C 4.296875 0.207031 4.207031 0.671875 4.03125 1.015625 C 3.71875 1.640625 3.113281 1.953125 2.21875 1.953125 C 1.726562 1.953125 1.3125 1.835938 0.96875 1.609375 C 0.632812 1.390625 0.445312 1.046875 0.40625 0.578125 L 1.1875 0.578125 C 1.226562 0.773438 1.300781 0.929688 1.40625 1.046875 C 1.582031 1.222656 1.859375 1.3125 2.234375 1.3125 C 2.828125 1.3125 3.21875 1.097656 3.40625 0.671875 C 3.507812 0.429688 3.554688 -0.00390625 3.546875 -0.640625 C 3.390625 -0.398438 3.203125 -0.222656 2.984375 -0.109375 C 2.773438 0.00390625 2.488281 0.0625 2.125 0.0625 C 1.632812 0.0625 1.203125 -0.113281 0.828125 -0.46875 C 0.453125 -0.820312 0.265625 -1.410156 0.265625 -2.234375 C 0.265625 -3.003906 0.453125 -3.601562 0.828125 -4.03125 C 1.203125 -4.46875 1.65625 -4.6875 2.1875 -4.6875 Z M 3.578125 -2.3125 C 3.578125 -2.882812 3.457031 -3.304688 3.21875 -3.578125 C 2.988281 -3.859375 2.691406 -4 2.328125 -4 C 1.785156 -4 1.414062 -3.742188 1.21875 -3.234375 C 1.113281 -2.960938 1.0625 -2.609375 1.0625 -2.171875 C 1.0625 -1.648438 1.164062 -1.253906 1.375 -0.984375 C 1.582031 -0.710938 1.863281 -0.578125 2.21875 -0.578125 C 2.769531 -0.578125 3.160156 -0.828125 3.390625 -1.328125 C 3.515625 -1.609375 3.578125 -1.9375 3.578125 -2.3125 Z M 2.28125 -4.71875 Z M 2.28125 -4.71875 "/>
</g>
<g id="glyph-0-15">
<path d="M 5.140625 -1.875 L 0.125 0.078125 L 0.125 -0.6875 L 4.21875 -2.25 L 0.125 -3.796875 L 0.125 -4.5625 L 5.140625 -2.609375 Z M 5.140625 -1.875 "/>
</g>
<g id="glyph-1-0">
<path d="M 0.359375 0 L 0.359375 -7.890625 L 6.625 -7.890625 L 6.625 0 Z M 5.625 -0.984375 L 5.625 -6.90625 L 1.34375 -6.90625 L 1.34375 -0.984375 Z M 5.625 -0.984375 "/>
</g>
<g id="glyph-1-1">
<path d="M 1.28125 -1.8125 C 1.3125 -1.488281 1.394531 -1.238281 1.53125 -1.0625 C 1.769531 -0.75 2.191406 -0.59375 2.796875 -0.59375 C 3.148438 -0.59375 3.460938 -0.671875 3.734375 -0.828125 C 4.003906 -0.984375 4.140625 -1.222656 4.140625 -1.546875 C 4.140625 -1.796875 4.03125 -1.984375 3.8125 -2.109375 C 3.675781 -2.191406 3.398438 -2.285156 2.984375 -2.390625 L 2.21875 -2.578125 C 1.726562 -2.703125 1.367188 -2.835938 1.140625 -2.984375 C 0.722656 -3.253906 0.515625 -3.617188 0.515625 -4.078125 C 0.515625 -4.617188 0.707031 -5.054688 1.09375 -5.390625 C 1.488281 -5.734375 2.019531 -5.90625 2.6875 -5.90625 C 3.550781 -5.90625 4.175781 -5.648438 4.5625 -5.140625 C 4.800781 -4.816406 4.914062 -4.46875 4.90625 -4.09375 L 4 -4.09375 C 3.976562 -4.3125 3.898438 -4.507812 3.765625 -4.6875 C 3.546875 -4.945312 3.160156 -5.078125 2.609375 -5.078125 C 2.242188 -5.078125 1.96875 -5.003906 1.78125 -4.859375 C 1.59375 -4.722656 1.5 -4.539062 1.5 -4.3125 C 1.5 -4.0625 1.625 -3.863281 1.875 -3.71875 C 2.007812 -3.625 2.21875 -3.539062 2.5 -3.46875 L 3.140625 -3.3125 C 3.835938 -3.144531 4.300781 -2.984375 4.53125 -2.828125 C 4.914062 -2.578125 5.109375 -2.191406 5.109375 -1.671875 C 5.109375 -1.148438 4.910156 -0.703125 4.515625 -0.328125 C 4.128906 0.0351562 3.539062 0.21875 2.75 0.21875 C 1.894531 0.21875 1.285156 0.0234375 0.921875 -0.359375 C 0.566406 -0.753906 0.378906 -1.238281 0.359375 -1.8125 Z M 2.71875 -5.890625 Z M 2.71875 -5.890625 "/>
</g>
<g id="glyph-1-2">
<path d="M 0.90625 -7.359375 L 1.875 -7.359375 L 1.875 -5.75 L 2.796875 -5.75 L 2.796875 -4.96875 L 1.875 -4.96875 L 1.875 -1.203125 C 1.875 -1.003906 1.941406 -0.875 2.078125 -0.8125 C 2.160156 -0.769531 2.285156 -0.75 2.453125 -0.75 C 2.503906 -0.75 2.554688 -0.75 2.609375 -0.75 C 2.660156 -0.75 2.722656 -0.753906 2.796875 -0.765625 L 2.796875 0 C 2.679688 0.03125 2.5625 0.0507812 2.4375 0.0625 C 2.320312 0.0820312 2.195312 0.09375 2.0625 0.09375 C 1.613281 0.09375 1.304688 -0.0195312 1.140625 -0.25 C 0.984375 -0.488281 0.90625 -0.789062 0.90625 -1.15625 L 0.90625 -4.96875 L 0.125 -4.96875 L 0.125 -5.75 L 0.90625 -5.75 Z M 0.90625 -7.359375 "/>
</g>
<g id="glyph-1-3">
<path d="M 1.453125 -1.53125 C 1.453125 -1.25 1.550781 -1.023438 1.75 -0.859375 C 1.957031 -0.703125 2.203125 -0.625 2.484375 -0.625 C 2.816406 -0.625 3.144531 -0.703125 3.46875 -0.859375 C 4.007812 -1.117188 4.28125 -1.550781 4.28125 -2.15625 L 4.28125 -2.921875 C 4.15625 -2.847656 4 -2.785156 3.8125 -2.734375 C 3.632812 -2.691406 3.453125 -2.65625 3.265625 -2.625 L 2.6875 -2.5625 C 2.332031 -2.507812 2.066406 -2.4375 1.890625 -2.34375 C 1.597656 -2.164062 1.453125 -1.894531 1.453125 -1.53125 Z M 3.796875 -3.484375 C 4.015625 -3.515625 4.160156 -3.609375 4.234375 -3.765625 C 4.273438 -3.847656 4.296875 -3.972656 4.296875 -4.140625 C 4.296875 -4.460938 4.175781 -4.695312 3.9375 -4.84375 C 3.707031 -5 3.375 -5.078125 2.9375 -5.078125 C 2.4375 -5.078125 2.082031 -4.941406 1.875 -4.671875 C 1.75 -4.515625 1.671875 -4.289062 1.640625 -4 L 0.734375 -4 C 0.753906 -4.707031 0.984375 -5.195312 1.421875 -5.46875 C 1.867188 -5.75 2.382812 -5.890625 2.96875 -5.890625 C 3.644531 -5.890625 4.191406 -5.757812 4.609375 -5.5 C 5.035156 -5.25 5.25 -4.847656 5.25 -4.296875 L 5.25 -0.984375 C 5.25 -0.890625 5.265625 -0.8125 5.296875 -0.75 C 5.335938 -0.6875 5.425781 -0.65625 5.5625 -0.65625 C 5.601562 -0.65625 5.648438 -0.65625 5.703125 -0.65625 C 5.765625 -0.664062 5.820312 -0.675781 5.875 -0.6875 L 5.875 0.03125 C 5.726562 0.0703125 5.613281 0.0976562 5.53125 0.109375 C 5.457031 0.117188 5.351562 0.125 5.21875 0.125 C 4.882812 0.125 4.640625 0.00390625 4.484375 -0.234375 C 4.410156 -0.359375 4.359375 -0.535156 4.328125 -0.765625 C 4.128906 -0.503906 3.84375 -0.28125 3.46875 -0.09375 C 3.101562 0.0898438 2.695312 0.1875 2.25 0.1875 C 1.71875 0.1875 1.28125 0.0234375 0.9375 -0.296875 C 0.601562 -0.617188 0.4375 -1.023438 0.4375 -1.515625 C 0.4375 -2.046875 0.601562 -2.457031 0.9375 -2.75 C 1.269531 -3.039062 1.707031 -3.222656 2.25 -3.296875 Z M 2.984375 -5.890625 Z M 2.984375 -5.890625 "/>
</g>
<g id="glyph-1-4">
<path d="M 2.734375 -5.859375 C 3.191406 -5.859375 3.585938 -5.742188 3.921875 -5.515625 C 4.097656 -5.390625 4.285156 -5.207031 4.484375 -4.96875 L 4.484375 -5.703125 L 5.375 -5.703125 L 5.375 -0.46875 C 5.375 0.257812 5.265625 0.835938 5.046875 1.265625 C 4.648438 2.046875 3.894531 2.4375 2.78125 2.4375 C 2.15625 2.4375 1.628906 2.296875 1.203125 2.015625 C 0.785156 1.734375 0.550781 1.300781 0.5 0.71875 L 1.484375 0.71875 C 1.535156 0.96875 1.628906 1.164062 1.765625 1.3125 C 1.984375 1.53125 2.328125 1.640625 2.796875 1.640625 C 3.535156 1.640625 4.019531 1.375 4.25 0.84375 C 4.382812 0.539062 4.445312 -0.00390625 4.4375 -0.796875 C 4.25 -0.503906 4.015625 -0.285156 3.734375 -0.140625 C 3.460938 -0.00390625 3.109375 0.0625 2.671875 0.0625 C 2.046875 0.0625 1.5 -0.15625 1.03125 -0.59375 C 0.5625 -1.03125 0.328125 -1.757812 0.328125 -2.78125 C 0.328125 -3.75 0.5625 -4.503906 1.03125 -5.046875 C 1.5 -5.585938 2.066406 -5.859375 2.734375 -5.859375 Z M 4.484375 -2.90625 C 4.484375 -3.613281 4.332031 -4.140625 4.03125 -4.484375 C 3.738281 -4.828125 3.367188 -5 2.921875 -5 C 2.234375 -5 1.765625 -4.679688 1.515625 -4.046875 C 1.390625 -3.703125 1.328125 -3.253906 1.328125 -2.703125 C 1.328125 -2.054688 1.457031 -1.5625 1.71875 -1.21875 C 1.976562 -0.882812 2.332031 -0.71875 2.78125 -0.71875 C 3.46875 -0.71875 3.957031 -1.03125 4.25 -1.65625 C 4.40625 -2.007812 4.484375 -2.425781 4.484375 -2.90625 Z M 2.859375 -5.890625 Z M 2.859375 -5.890625 "/>
</g>
<g id="glyph-1-5">
<path d="M 3.109375 -5.875 C 3.515625 -5.875 3.90625 -5.78125 4.28125 -5.59375 C 4.664062 -5.40625 4.960938 -5.15625 5.171875 -4.84375 C 5.359375 -4.5625 5.484375 -4.222656 5.546875 -3.828125 C 5.609375 -3.566406 5.640625 -3.144531 5.640625 -2.5625 L 1.421875 -2.5625 C 1.441406 -1.976562 1.578125 -1.507812 1.828125 -1.15625 C 2.085938 -0.8125 2.488281 -0.640625 3.03125 -0.640625 C 3.539062 -0.640625 3.945312 -0.804688 4.25 -1.140625 C 4.414062 -1.328125 4.535156 -1.550781 4.609375 -1.8125 L 5.5625 -1.8125 C 5.53125 -1.59375 5.441406 -1.351562 5.296875 -1.09375 C 5.160156 -0.832031 5.003906 -0.625 4.828125 -0.46875 C 4.535156 -0.175781 4.175781 0.0195312 3.75 0.125 C 3.507812 0.175781 3.242188 0.203125 2.953125 0.203125 C 2.234375 0.203125 1.625 -0.0546875 1.125 -0.578125 C 0.632812 -1.097656 0.390625 -1.828125 0.390625 -2.765625 C 0.390625 -3.691406 0.640625 -4.441406 1.140625 -5.015625 C 1.640625 -5.585938 2.296875 -5.875 3.109375 -5.875 Z M 4.640625 -3.328125 C 4.609375 -3.753906 4.519531 -4.09375 4.375 -4.34375 C 4.101562 -4.800781 3.660156 -5.03125 3.046875 -5.03125 C 2.597656 -5.03125 2.222656 -4.867188 1.921875 -4.546875 C 1.628906 -4.234375 1.472656 -3.828125 1.453125 -3.328125 Z M 3.015625 -5.890625 Z M 3.015625 -5.890625 "/>
</g>
<g id="glyph-1-6">
<path d="M 1.359375 -7.890625 L 2.84375 -1.46875 L 4.625 -7.890625 L 5.796875 -7.890625 L 7.578125 -1.46875 L 9.0625 -7.890625 L 10.234375 -7.890625 L 8.15625 0 L 7.03125 0 L 5.21875 -6.546875 L 3.390625 0 L 2.265625 0 L 0.203125 -7.890625 Z M 1.359375 -7.890625 "/>
</g>
<g id="glyph-1-7">
<path d="M 0.703125 -5.71875 L 1.6875 -5.71875 L 1.6875 0 L 0.703125 0 Z M 0.703125 -7.890625 L 1.6875 -7.890625 L 1.6875 -6.796875 L 0.703125 -6.796875 Z M 0.703125 -7.890625 "/>
</g>
<g id="glyph-1-8">
<path d="M 0.703125 -7.921875 L 1.671875 -7.921875 L 1.671875 -4.96875 C 1.898438 -5.257812 2.109375 -5.46875 2.296875 -5.59375 C 2.609375 -5.789062 2.992188 -5.890625 3.453125 -5.890625 C 4.285156 -5.890625 4.851562 -5.597656 5.15625 -5.015625 C 5.3125 -4.691406 5.390625 -4.25 5.390625 -3.6875 L 5.390625 0 L 4.40625 0 L 4.40625 -3.625 C 4.40625 -4.050781 4.351562 -4.363281 4.25 -4.5625 C 4.070312 -4.875 3.738281 -5.03125 3.25 -5.03125 C 2.851562 -5.03125 2.488281 -4.890625 2.15625 -4.609375 C 1.832031 -4.335938 1.671875 -3.816406 1.671875 -3.046875 L 1.671875 0 L 0.703125 0 Z M 0.703125 -7.921875 "/>
</g>
<g id="glyph-2-0">
<path d="M 0 -0.359375 L -7.890625 -0.359375 L -7.890625 -6.625 L 0 -6.625 Z M -0.984375 -5.625 L -6.90625 -5.625 L -6.90625 -1.34375 L -0.984375 -1.34375 Z M -0.984375 -5.625 "/>
</g>
<g id="glyph-2-1">
<path d="M -7.890625 -0.859375 L -7.890625 -1.9375 L -4.625 -1.9375 L -4.625 -6.046875 L -7.890625 -6.046875 L -7.890625 -7.125 L 0 -7.125 L 0 -6.046875 L -3.6875 -6.046875 L -3.6875 -1.9375 L 0 -1.9375 L 0 -0.859375 Z M -7.890625 -0.859375 "/>
</g>
<g id="glyph-2-2">
<path d="M -5.875 -3.109375 C -5.875 -3.515625 -5.78125 -3.90625 -5.59375 -4.28125 C -5.40625 -4.664062 -5.15625 -4.960938 -4.84375 -5.171875 C -4.5625 -5.359375 -4.222656 -5.484375 -3.828125 -5.546875 C -3.566406 -5.609375 -3.144531 -5.640625 -2.5625 -5.640625 L -2.5625 -1.421875 C -1.976562 -1.441406 -1.507812 -1.578125 -1.15625 -1.828125 C -0.8125 -2.085938 -0.640625 -2.488281 -0.640625 -3.03125 C -0.640625 -3.539062 -0.804688 -3.945312 -1.140625 -4.25 C -1.328125 -4.414062 -1.550781 -4.535156 -1.8125 -4.609375 L -1.8125 -5.5625 C -1.59375 -5.53125 -1.351562 -5.441406 -1.09375 -5.296875 C -0.832031 -5.160156 -0.625 -5.003906 -0.46875 -4.828125 C -0.175781 -4.535156 0.0195312 -4.175781 0.125 -3.75 C 0.175781 -3.507812 0.203125 -3.242188 0.203125 -2.953125 C 0.203125 -2.234375 -0.0546875 -1.625 -0.578125 -1.125 C -1.097656 -0.632812 -1.828125 -0.390625 -2.765625 -0.390625 C -3.691406 -0.390625 -4.441406 -0.640625 -5.015625 -1.140625 C -5.585938 -1.640625 -5.875 -2.296875 -5.875 -3.109375 Z M -3.328125 -4.640625 C -3.753906 -4.609375 -4.09375 -4.519531 -4.34375 -4.375 C -4.800781 -4.101562 -5.03125 -3.660156 -5.03125 -3.046875 C -5.03125 -2.597656 -4.867188 -2.222656 -4.546875 -1.921875 C -4.234375 -1.628906 -3.828125 -1.472656 -3.328125 -1.453125 Z M -5.890625 -3.015625 Z M -5.890625 -3.015625 "/>
</g>
<g id="glyph-2-3">
<path d="M -5.71875 -0.703125 L -5.71875 -1.6875 L 0 -1.6875 L 0 -0.703125 Z M -7.890625 -0.703125 L -7.890625 -1.6875 L -6.796875 -1.6875 L -6.796875 -0.703125 Z M -7.890625 -0.703125 "/>
</g>
<g id="glyph-2-4">
<path d="M -5.859375 -2.734375 C -5.859375 -3.191406 -5.742188 -3.585938 -5.515625 -3.921875 C -5.390625 -4.097656 -5.207031 -4.285156 -4.96875 -4.484375 L -5.703125 -4.484375 L -5.703125 -5.375 L -0.46875 -5.375 C 0.257812 -5.375 0.835938 -5.265625 1.265625 -5.046875 C 2.046875 -4.648438 2.4375 -3.894531 2.4375 -2.78125 C 2.4375 -2.15625 2.296875 -1.628906 2.015625 -1.203125 C 1.734375 -0.785156 1.300781 -0.550781 0.71875 -0.5 L 0.71875 -1.484375 C 0.96875 -1.535156 1.164062 -1.628906 1.3125 -1.765625 C 1.53125 -1.984375 1.640625 -2.328125 1.640625 -2.796875 C 1.640625 -3.535156 1.375 -4.019531 0.84375 -4.25 C 0.539062 -4.382812 -0.00390625 -4.445312 -0.796875 -4.4375 C -0.503906 -4.25 -0.285156 -4.015625 -0.140625 -3.734375 C -0.00390625 -3.460938 0.0625 -3.109375 0.0625 -2.671875 C 0.0625 -2.046875 -0.15625 -1.5 -0.59375 -1.03125 C -1.03125 -0.5625 -1.757812 -0.328125 -2.78125 -0.328125 C -3.75 -0.328125 -4.503906 -0.5625 -5.046875 -1.03125 C -5.585938 -1.5 -5.859375 -2.066406 -5.859375 -2.734375 Z M -2.90625 -4.484375 C -3.613281 -4.484375 -4.140625 -4.332031 -4.484375 -4.03125 C -4.828125 -3.738281 -5 -3.367188 -5 -2.921875 C -5 -2.234375 -4.679688 -1.765625 -4.046875 -1.515625 C -3.703125 -1.390625 -3.253906 -1.328125 -2.703125 -1.328125 C -2.054688 -1.328125 -1.5625 -1.457031 -1.21875 -1.71875 C -0.882812 -1.976562 -0.71875 -2.332031 -0.71875 -2.78125 C -0.71875 -3.46875 -1.03125 -3.957031 -1.65625 -4.25 C -2.007812 -4.40625 -2.425781 -4.484375 -2.90625 -4.484375 Z M -5.890625 -2.859375 Z M -5.890625 -2.859375 "/>
</g>
<g id="glyph-2-5">
<path d="M -7.921875 -0.703125 L -7.921875 -1.671875 L -4.96875 -1.671875 C -5.257812 -1.898438 -5.46875 -2.109375 -5.59375 -2.296875 C -5.789062 -2.609375 -5.890625 -2.992188 -5.890625 -3.453125 C -5.890625 -4.285156 -5.597656 -4.851562 -5.015625 -5.15625 C -4.691406 -5.3125 -4.25 -5.390625 -3.6875 -5.390625 L 0 -5.390625 L 0 -4.40625 L -3.625 -4.40625 C -4.050781 -4.40625 -4.363281 -4.351562 -4.5625 -4.25 C -4.875 -4.070312 -5.03125 -3.738281 -5.03125 -3.25 C -5.03125 -2.851562 -4.890625 -2.488281 -4.609375 -2.15625 C -4.335938 -1.832031 -3.816406 -1.671875 -3.046875 -1.671875 L 0 -1.671875 L 0 -0.703125 Z M -7.921875 -0.703125 "/>
</g>
<g id="glyph-2-6">
<path d="M -7.359375 -0.90625 L -7.359375 -1.875 L -5.75 -1.875 L -5.75 -2.796875 L -4.96875 -2.796875 L -4.96875 -1.875 L -1.203125 -1.875 C -1.003906 -1.875 -0.875 -1.941406 -0.8125 -2.078125 C -0.769531 -2.160156 -0.75 -2.285156 -0.75 -2.453125 C -0.75 -2.503906 -0.75 -2.554688 -0.75 -2.609375 C -0.75 -2.660156 -0.753906 -2.722656 -0.765625 -2.796875 L 0 -2.796875 C 0.03125 -2.679688 0.0507812 -2.5625 0.0625 -2.4375 C 0.0820312 -2.320312 0.09375 -2.195312 0.09375 -2.0625 C 0.09375 -1.613281 -0.0195312 -1.304688 -0.25 -1.140625 C -0.488281 -0.984375 -0.789062 -0.90625 -1.15625 -0.90625 L -4.96875 -0.90625 L -4.96875 -0.125 L -5.75 -0.125 L -5.75 -0.90625 Z M -7.359375 -0.90625 "/>
</g>
<g id="glyph-2-7">
</g>
<g id="glyph-2-8">
<path d="M -8.015625 -3.25 C -6.921875 -2.6875 -6.117188 -2.320312 -5.609375 -2.15625 C -4.828125 -1.90625 -3.921875 -1.78125 -2.890625 -1.78125 C -1.847656 -1.78125 -0.898438 -1.925781 -0.046875 -2.21875 C 0.480469 -2.394531 1.25 -2.742188 2.25 -3.265625 L 2.25 -2.625 C 1.425781 -2.101562 0.898438 -1.78125 0.671875 -1.65625 C 0.453125 -1.53125 0.148438 -1.390625 -0.234375 -1.234375 C -0.765625 -1.035156 -1.332031 -0.898438 -1.9375 -0.828125 C -2.25 -0.785156 -2.546875 -0.765625 -2.828125 -0.765625 C -3.890625 -0.765625 -4.832031 -0.929688 -5.65625 -1.265625 C -6.1875 -1.472656 -6.972656 -1.910156 -8.015625 -2.578125 Z M -8.015625 -3.25 "/>
</g>
<g id="glyph-2-9">
<path d="M -5.921875 -2.921875 C -5.921875 -3.578125 -5.757812 -4.109375 -5.4375 -4.515625 C -5.125 -4.921875 -4.582031 -5.164062 -3.8125 -5.25 L -3.8125 -4.296875 C -4.164062 -4.242188 -4.457031 -4.113281 -4.6875 -3.90625 C -4.925781 -3.707031 -5.046875 -3.378906 -5.046875 -2.921875 C -5.046875 -2.304688 -4.75 -1.867188 -4.15625 -1.609375 C -3.757812 -1.429688 -3.273438 -1.34375 -2.703125 -1.34375 C -2.128906 -1.34375 -1.644531 -1.460938 -1.25 -1.703125 C -0.851562 -1.953125 -0.65625 -2.335938 -0.65625 -2.859375 C -0.65625 -3.265625 -0.773438 -3.582031 -1.015625 -3.8125 C -1.265625 -4.050781 -1.601562 -4.210938 -2.03125 -4.296875 L -2.03125 -5.25 C -1.269531 -5.132812 -0.710938 -4.863281 -0.359375 -4.4375 C -0.00390625 -4.007812 0.171875 -3.457031 0.171875 -2.78125 C 0.171875 -2.03125 -0.101562 -1.429688 -0.65625 -0.984375 C -1.207031 -0.535156 -1.894531 -0.3125 -2.71875 -0.3125 C -3.726562 -0.3125 -4.515625 -0.554688 -5.078125 -1.046875 C -5.640625 -1.535156 -5.921875 -2.160156 -5.921875 -2.921875 Z M -5.890625 -2.78125 Z M -5.890625 -2.78125 "/>
</g>
<g id="glyph-2-10">
<path d="M -5.75 -0.703125 L -5.75 -1.671875 L -4.9375 -1.671875 C -5.21875 -1.898438 -5.421875 -2.101562 -5.546875 -2.28125 C -5.765625 -2.601562 -5.875 -2.96875 -5.875 -3.375 C -5.875 -3.832031 -5.765625 -4.203125 -5.546875 -4.484375 C -5.410156 -4.640625 -5.21875 -4.78125 -4.96875 -4.90625 C -5.28125 -5.125 -5.507812 -5.378906 -5.65625 -5.671875 C -5.800781 -5.960938 -5.875 -6.285156 -5.875 -6.640625 C -5.875 -7.410156 -5.597656 -7.9375 -5.046875 -8.21875 C -4.742188 -8.375 -4.335938 -8.453125 -3.828125 -8.453125 L 0 -8.453125 L 0 -7.4375 L -4 -7.4375 C -4.382812 -7.4375 -4.644531 -7.34375 -4.78125 -7.15625 C -4.925781 -6.96875 -5 -6.734375 -5 -6.453125 C -5 -6.078125 -4.867188 -5.75 -4.609375 -5.46875 C -4.359375 -5.195312 -3.9375 -5.0625 -3.34375 -5.0625 L 0 -5.0625 L 0 -4.078125 L -3.75 -4.078125 C -4.144531 -4.078125 -4.429688 -4.03125 -4.609375 -3.9375 C -4.878906 -3.789062 -5.015625 -3.519531 -5.015625 -3.125 C -5.015625 -2.757812 -4.867188 -2.425781 -4.578125 -2.125 C -4.296875 -1.820312 -3.785156 -1.671875 -3.046875 -1.671875 L 0 -1.671875 L 0 -0.703125 Z M -5.75 -0.703125 "/>
</g>
<g id="glyph-2-11">
<path d="M 2.25 -0.375 C 1.132812 -0.945312 0.320312 -1.316406 -0.1875 -1.484375 C -0.957031 -1.734375 -1.859375 -1.859375 -2.890625 -1.859375 C -3.921875 -1.859375 -4.867188 -1.710938 -5.734375 -1.421875 C -6.265625 -1.242188 -7.023438 -0.890625 -8.015625 -0.359375 L -8.015625 -1.015625 C -7.140625 -1.566406 -6.597656 -1.898438 -6.390625 -2.015625 C -6.179688 -2.128906 -5.894531 -2.253906 -5.53125 -2.390625 C -5.082031 -2.566406 -4.640625 -2.691406 -4.203125 -2.765625 C -3.773438 -2.835938 -3.359375 -2.875 -2.953125 -2.875 C -1.890625 -2.875 -0.941406 -2.707031 -0.109375 -2.375 C 0.417969 -2.15625 1.207031 -1.710938 2.25 -1.046875 Z M 2.25 -0.375 "/>
</g>
</g>
<clipPath id="clip-0">
<path clip-rule="nonzero" d="M 39.152344 5.480469 L 427.84375 5.480469 L 427.84375 470.851562 L 39.152344 470.851562 Z M 39.152344 5.480469 "/>
</clipPath>
</defs>
<rect x="-50.4" y="-50.4" width="604.8" height="604.8" fill="rgb(100%, 100%, 100%)" fill-opacity="1"/>
<rect x="-50.4" y="-50.4" width="604.8" height="604.8" fill="rgb(100%, 100%, 100%)" fill-opacity="1"/>
<path fill="none" stroke-width="1.066978" stroke-linecap="round" stroke-linejoin="round" stroke="rgb(100%, 100%, 100%)" stroke-opacity="1" stroke-miterlimit="10" d="M 0 504 L 504 504 L 504 0 L 0 0 Z M 0 504 "/>
<g clip-path="url(#clip-0)">
<path fill-rule="nonzero" fill="rgb(100%, 100%, 100%)" fill-opacity="1" d="M 39.152344 470.847656 L 427.84375 470.847656 L 427.84375 5.476562 L 39.152344 5.476562 Z M 39.152344 470.847656 "/>
</g>
<path fill="none" stroke-width="1.066978" stroke-linecap="butt" stroke-linejoin="round" stroke="rgb(0%, 0%, 100%)" stroke-opacity="1" stroke-miterlimit="10" d="M 94.679688 449.695312 L 94.679688 365.492188 "/>
<path fill="none" stroke-width="1.066978" stroke-linecap="butt" stroke-linejoin="round" stroke="rgb(100%, 0%, 0%)" stroke-opacity="1" stroke-miterlimit="10" d="M 94.679688 194.785156 L 94.679688 26.632812 "/>
<path fill="none" stroke-width="1.066978" stroke-linecap="butt" stroke-linejoin="round" stroke="rgb(0%, 0%, 100%)" stroke-opacity="1" stroke-miterlimit="10" d="M 187.222656 343.023438 L 187.222656 274.28125 "/>
<path fill="none" stroke-width="1.066978" stroke-linecap="butt" stroke-linejoin="round" stroke="rgb(100%, 0%, 0%)" stroke-opacity="1" stroke-miterlimit="10" d="M 187.222656 401.554688 L 187.222656 222.625 "/>
<path fill="none" stroke-width="1.066978" stroke-linecap="butt" stroke-linejoin="round" stroke="rgb(0%, 0%, 100%)" stroke-opacity="1" stroke-miterlimit="10" d="M 279.769531 300.851562 L 279.769531 218.796875 "/>
<path fill="none" stroke-width="1.066978" stroke-linecap="butt" stroke-linejoin="round" stroke="rgb(100%, 0%, 0%)" stroke-opacity="1" stroke-miterlimit="10" d="M 279.769531 125.976562 L 279.769531 93.988281 "/>
<path fill="none" stroke-width="1.066978" stroke-linecap="butt" stroke-linejoin="round" stroke="rgb(0%, 0%, 100%)" stroke-opacity="1" stroke-miterlimit="10" d="M 372.316406 371.515625 L 372.316406 204.890625 "/>
<path fill="none" stroke-width="1.066978" stroke-linecap="butt" stroke-linejoin="round" stroke="rgb(100%, 0%, 0%)" stroke-opacity="1" stroke-miterlimit="10" d="M 372.316406 272.515625 L 372.316406 60.863281 "/>
<path fill-rule="nonzero" fill="rgb(0%, 0%, 100%)" fill-opacity="1" stroke-width="1.417323" stroke-linecap="round" stroke-linejoin="round" stroke="rgb(0%, 0%, 100%)" stroke-opacity="1" stroke-miterlimit="10" d="M 97.09375 407.59375 C 97.09375 410.816406 92.261719 410.816406 92.261719 407.59375 C 92.261719 404.375 97.09375 404.375 97.09375 407.59375 "/>
<path fill-rule="nonzero" fill="rgb(100%, 0%, 0%)" fill-opacity="1" stroke-width="1.417323" stroke-linecap="round" stroke-linejoin="round" stroke="rgb(100%, 0%, 0%)" stroke-opacity="1" stroke-miterlimit="10" d="M 97.09375 110.707031 C 97.09375 113.929688 92.261719 113.929688 92.261719 110.707031 C 92.261719 107.488281 97.09375 107.488281 97.09375 110.707031 "/>
<path fill-rule="nonzero" fill="rgb(0%, 0%, 100%)" fill-opacity="1" stroke-width="1.417323" stroke-linecap="round" stroke-linejoin="round" stroke="rgb(0%, 0%, 100%)" stroke-opacity="1" stroke-miterlimit="10" d="M 189.640625 308.652344 C 189.640625 311.875 184.808594 311.875 184.808594 308.652344 C 184.808594 305.429688 189.640625 305.429688 189.640625 308.652344 "/>
<path fill-rule="nonzero" fill="rgb(100%, 0%, 0%)" fill-opacity="1" stroke-width="1.417323" stroke-linecap="round" stroke-linejoin="round" stroke="rgb(100%, 0%, 0%)" stroke-opacity="1" stroke-miterlimit="10" d="M 189.640625 312.089844 C 189.640625 315.308594 184.808594 315.308594 184.808594 312.089844 C 184.808594 308.867188 189.640625 308.867188 189.640625 312.089844 "/>
<path fill-rule="nonzero" fill="rgb(0%, 0%, 100%)" fill-opacity="1" stroke-width="1.417323" stroke-linecap="round" stroke-linejoin="round" stroke="rgb(0%, 0%, 100%)" stroke-opacity="1" stroke-miterlimit="10" d="M 282.1875 259.824219 C 282.1875 263.042969 277.355469 263.042969 277.355469 259.824219 C 277.355469 256.601562 282.1875 256.601562 282.1875 259.824219 "/>
<path fill-rule="nonzero" fill="rgb(100%, 0%, 0%)" fill-opacity="1" stroke-width="1.417323" stroke-linecap="round" stroke-linejoin="round" stroke="rgb(100%, 0%, 0%)" stroke-opacity="1" stroke-miterlimit="10" d="M 282.1875 109.980469 C 282.1875 113.203125 277.355469 113.203125 277.355469 109.980469 C 277.355469 106.761719 282.1875 106.761719 282.1875 109.980469 "/>
<path fill-rule="nonzero" fill="rgb(0%, 0%, 100%)" fill-opacity="1" stroke-width="1.417323" stroke-linecap="round" stroke-linejoin="round" stroke="rgb(0%, 0%, 100%)" stroke-opacity="1" stroke-miterlimit="10" d="M 374.730469 288.203125 C 374.730469 291.421875 369.898438 291.421875 369.898438 288.203125 C 369.898438 284.980469 374.730469 284.980469 374.730469 288.203125 "/>
<path fill-rule="nonzero" fill="rgb(100%, 0%, 0%)" fill-opacity="1" stroke-width="1.417323" stroke-linecap="round" stroke-linejoin="round" stroke="rgb(100%, 0%, 0%)" stroke-opacity="1" stroke-miterlimit="10" d="M 374.730469 166.6875 C 374.730469 169.910156 369.898438 169.910156 369.898438 166.6875 C 369.898438 163.46875 374.730469 163.46875 374.730469 166.6875 "/>
<path fill="none" stroke-width="1.066978" stroke-linecap="square" stroke-linejoin="round" stroke="rgb(0%, 0%, 0%)" stroke-opacity="1" stroke-miterlimit="10" d="M 39.152344 470.847656 L 39.152344 5.480469 "/>
<g fill="rgb(0%, 0%, 0%)" fill-opacity="1">
<use xlink:href="#glyph-0-1" x="19.21875" y="457.858398"/>
<use xlink:href="#glyph-0-2" x="24.21875" y="457.858398"/>
<use xlink:href="#glyph-0-3" x="29.21875" y="457.858398"/>
</g>
<g fill="rgb(0%, 0%, 0%)" fill-opacity="1">
<use xlink:href="#glyph-0-1" x="19.21875" y="341.538086"/>
<use xlink:href="#glyph-0-2" x="24.21875" y="341.538086"/>
<use xlink:href="#glyph-0-4" x="29.21875" y="341.538086"/>
</g>
<g fill="rgb(0%, 0%, 0%)" fill-opacity="1">
<use xlink:href="#glyph-0-1" x="19.21875" y="225.217773"/>
<use xlink:href="#glyph-0-5" x="24.21875" y="225.217773"/>
<use xlink:href="#glyph-0-6" x="29.21875" y="225.217773"/>
</g>
<g fill="rgb(0%, 0%, 0%)" fill-opacity="1">
<use xlink:href="#glyph-0-1" x="19.21875" y="108.897461"/>
<use xlink:href="#glyph-0-5" x="24.21875" y="108.897461"/>
<use xlink:href="#glyph-0-2" x="29.21875" y="108.897461"/>
</g>
<path fill="none" stroke-width="1.066978" stroke-linecap="butt" stroke-linejoin="round" stroke="rgb(0%, 0%, 0%)" stroke-opacity="1" stroke-miterlimit="10" d="M 36.410156 454.582031 L 39.152344 454.582031 "/>
<path fill="none" stroke-width="1.066978" stroke-linecap="butt" stroke-linejoin="round" stroke="rgb(0%, 0%, 0%)" stroke-opacity="1" stroke-miterlimit="10" d="M 36.410156 338.261719 L 39.152344 338.261719 "/>
<path fill="none" stroke-width="1.066978" stroke-linecap="butt" stroke-linejoin="round" stroke="rgb(0%, 0%, 0%)" stroke-opacity="1" stroke-miterlimit="10" d="M 36.410156 221.941406 L 39.152344 221.941406 "/>
<path fill="none" stroke-width="1.066978" stroke-linecap="butt" stroke-linejoin="round" stroke="rgb(0%, 0%, 0%)" stroke-opacity="1" stroke-miterlimit="10" d="M 36.410156 105.621094 L 39.152344 105.621094 "/>
<path fill="none" stroke-width="1.066978" stroke-linecap="square" stroke-linejoin="round" stroke="rgb(0%, 0%, 0%)" stroke-opacity="1" stroke-miterlimit="10" d="M 39.152344 470.847656 L 427.84375 470.847656 "/>
<path fill="none" stroke-width="1.066978" stroke-linecap="butt" stroke-linejoin="round" stroke="rgb(0%, 0%, 0%)" stroke-opacity="1" stroke-miterlimit="10" d="M 94.679688 473.589844 L 94.679688 470.847656 "/>
<path fill="none" stroke-width="1.066978" stroke-linecap="butt" stroke-linejoin="round" stroke="rgb(0%, 0%, 0%)" stroke-opacity="1" stroke-miterlimit="10" d="M 187.222656 473.589844 L 187.222656 470.847656 "/>
<path fill="none" stroke-width="1.066978" stroke-linecap="butt" stroke-linejoin="round" stroke="rgb(0%, 0%, 0%)" stroke-opacity="1" stroke-miterlimit="10" d="M 279.769531 473.589844 L 279.769531 470.847656 "/>
<path fill="none" stroke-width="1.066978" stroke-linecap="butt" stroke-linejoin="round" stroke="rgb(0%, 0%, 0%)" stroke-opacity="1" stroke-miterlimit="10" d="M 372.316406 473.589844 L 372.316406 470.847656 "/>
<g fill="rgb(0%, 0%, 0%)" fill-opacity="1">
<use xlink:href="#glyph-0-7" x="93.679688" y="482.557617"/>
</g>
<g fill="rgb(0%, 0%, 0%)" fill-opacity="1">
<use xlink:href="#glyph-0-7" x="185.222656" y="482.557617"/>
<use xlink:href="#glyph-0-7" x="187.222656" y="482.557617"/>
</g>
<g fill="rgb(0%, 0%, 0%)" fill-opacity="1">
<use xlink:href="#glyph-0-7" x="276.769531" y="482.557617"/>
<use xlink:href="#glyph-0-7" x="278.769531" y="482.557617"/>
<use xlink:href="#glyph-0-7" x="280.769531" y="482.557617"/>
</g>
<g fill="rgb(0%, 0%, 0%)" fill-opacity="1">
<use xlink:href="#glyph-0-7" x="368.316406" y="482.557617"/>
<use xlink:href="#glyph-0-8" x="370.316406" y="482.557617"/>
</g>
<g fill="rgb(0%, 0%, 0%)" fill-opacity="1">
<use xlink:href="#glyph-1-1" x="219.996094" y="494.990234"/>
<use xlink:href="#glyph-1-2" x="225.996094" y="494.990234"/>
<use xlink:href="#glyph-1-3" x="228.996094" y="494.990234"/>
<use xlink:href="#glyph-1-4" x="234.996094" y="494.990234"/>
<use xlink:href="#glyph-1-5" x="240.996094" y="494.990234"/>
</g>
<g fill="rgb(0%, 0%, 0%)" fill-opacity="1">
<use xlink:href="#glyph-2-1" x="12.951172" y="266.664062"/>
<use xlink:href="#glyph-2-2" x="12.951172" y="258.664062"/>
<use xlink:href="#glyph-2-3" x="12.951172" y="252.664062"/>
<use xlink:href="#glyph-2-4" x="12.951172" y="250.664062"/>
<use xlink:href="#glyph-2-5" x="12.951172" y="244.664062"/>
<use xlink:href="#glyph-2-6" x="12.951172" y="238.664062"/>
<use xlink:href="#glyph-2-7" x="12.951172" y="235.664062"/>
<use xlink:href="#glyph-2-8" x="12.951172" y="232.664062"/>
<use xlink:href="#glyph-2-9" x="12.951172" y="228.664062"/>
<use xlink:href="#glyph-2-10" x="12.951172" y="222.664062"/>
<use xlink:href="#glyph-2-11" x="12.951172" y="213.664062"/>
</g>
<path fill-rule="nonzero" fill="rgb(100%, 100%, 100%)" fill-opacity="1" d="M 438.800781 269.164062 L 498.519531 269.164062 L 498.519531 207.164062 L 438.800781 207.164062 Z M 438.800781 269.164062 "/>
<g fill="rgb(0%, 0%, 0%)" fill-opacity="1">
<use xlink:href="#glyph-1-6" x="444.28125" y="221.615234"/>
<use xlink:href="#glyph-1-5" x="454.28125" y="221.615234"/>
<use xlink:href="#glyph-1-7" x="460.28125" y="221.615234"/>
<use xlink:href="#glyph-1-4" x="462.28125" y="221.615234"/>
<use xlink:href="#glyph-1-8" x="468.28125" y="221.615234"/>
<use xlink:href="#glyph-1-2" x="474.28125" y="221.615234"/>
</g>
<path fill-rule="nonzero" fill="rgb(100%, 100%, 100%)" fill-opacity="1" d="M 444.28125 246.402344 L 461.5625 246.402344 L 461.5625 229.121094 L 444.28125 229.121094 Z M 444.28125 246.402344 "/>
<path fill="none" stroke-width="1.066978" stroke-linecap="butt" stroke-linejoin="round" stroke="rgb(0%, 0%, 100%)" stroke-opacity="1" stroke-miterlimit="10" d="M 452.921875 244.675781 L 452.921875 230.851562 "/>
<path fill-rule="nonzero" fill="rgb(0%, 0%, 100%)" fill-opacity="1" stroke-width="1.417323" stroke-linecap="round" stroke-linejoin="round" stroke="rgb(0%, 0%, 100%)" stroke-opacity="1" stroke-miterlimit="10" d="M 455.335938 237.765625 C 455.335938 240.984375 450.503906 240.984375 450.503906 237.765625 C 450.503906 234.542969 455.335938 234.542969 455.335938 237.765625 "/>
<path fill-rule="nonzero" fill="rgb(100%, 100%, 100%)" fill-opacity="1" d="M 444.28125 263.683594 L 461.5625 263.683594 L 461.5625 246.402344 L 444.28125 246.402344 Z M 444.28125 263.683594 "/>
<path fill="none" stroke-width="1.066978" stroke-linecap="butt" stroke-linejoin="round" stroke="rgb(100%, 0%, 0%)" stroke-opacity="1" stroke-miterlimit="10" d="M 452.921875 261.957031 L 452.921875 248.132812 "/>
<path fill-rule="nonzero" fill="rgb(100%, 0%, 0%)" fill-opacity="1" stroke-width="1.417323" stroke-linecap="round" stroke-linejoin="round" stroke="rgb(100%, 0%, 0%)" stroke-opacity="1" stroke-miterlimit="10" d="M 455.335938 255.042969 C 455.335938 258.265625 450.503906 258.265625 450.503906 255.042969 C 450.503906 251.824219 455.335938 251.824219 455.335938 255.042969 "/>
<g fill="rgb(0%, 0%, 0%)" fill-opacity="1">
<use xlink:href="#glyph-0-9" x="467.042969" y="241.041992"/>
<use xlink:href="#glyph-0-10" x="472.042969" y="241.041992"/>
<use xlink:href="#glyph-0-11" x="474.042969" y="241.041992"/>
<use xlink:href="#glyph-0-12" x="479.042969" y="241.041992"/>
<use xlink:href="#glyph-0-13" x="484.042969" y="241.041992"/>
<use xlink:href="#glyph-0-14" x="488.042969" y="241.041992"/>
</g>
<g fill="rgb(0%, 0%, 0%)" fill-opacity="1">
<use xlink:href="#glyph-0-15" x="467.042969" y="258.319336"/>
<use xlink:href="#glyph-0-10" x="472.042969" y="258.319336"/>
<use xlink:href="#glyph-0-11" x="474.042969" y="258.319336"/>
<use xlink:href="#glyph-0-12" x="479.042969" y="258.319336"/>
<use xlink:href="#glyph-0-13" x="484.042969" y="258.319336"/>
<use xlink:href="#glyph-0-14" x="488.042969" y="258.319336"/>
</g>
</svg>
