<?xml version="1.0" encoding="UTF-8"?>
<svg xmlns="http://www.w3.org/2000/svg" xmlns:xlink="http://www.w3.org/1999/xlink" width="504pt" height="504pt" viewBox="0 0 504 504">
<defs>
<g>
<g id="glyph-0-0">
<path d="M 0.28125 0 L 0.28125 -6.3125 L 5.296875 -6.3125 L 5.296875 0 Z M 4.5 -0.796875 L 4.5 -5.515625 L 1.078125 -5.515625 L 1.078125 -0.796875 Z M 4.5 -0.796875 "/>
</g>
<g id="glyph-0-1">
<path d="M 2.375 -6.15625 C 3.175781 -6.15625 3.753906 -5.828125 4.109375 -5.171875 C 4.378906 -4.660156 4.515625 -3.960938 4.515625 -3.078125 C 4.515625 -2.242188 4.390625 -1.554688 4.140625 -1.015625 C 3.785156 -0.222656 3.195312 0.171875 2.375 0.171875 C 1.632812 0.171875 1.082031 -0.148438 0.71875 -0.796875 C 0.425781 -1.328125 0.28125 -2.046875 0.28125 -2.953125 C 0.28125 -3.648438 0.367188 -4.25 0.546875 -4.75 C 0.878906 -5.6875 1.488281 -6.15625 2.375 -6.15625 Z M 2.375 -0.53125 C 2.769531 -0.53125 3.085938 -0.707031 3.328125 -1.0625 C 3.566406 -1.425781 3.6875 -2.085938 3.6875 -3.046875 C 3.6875 -3.753906 3.597656 -4.332031 3.421875 -4.78125 C 3.253906 -5.226562 2.921875 -5.453125 2.421875 -5.453125 C 1.972656 -5.453125 1.640625 -5.238281 1.421875 -4.8125 C 1.210938 -4.382812 1.109375 -3.753906 1.109375 -2.921875 C 1.109375 -2.296875 1.175781 -1.789062 1.3125 -1.40625 C 1.519531 -0.820312 1.875 -0.53125 2.375 -0.53125 Z M 2.375 -0.53125 "/>
</g>
<g id="glyph-0-2">
<path d="M 0.28125 0 C 0.300781 -0.53125 0.40625 -0.988281 0.59375 -1.375 C 0.789062 -1.769531 1.164062 -2.128906 1.71875 -2.453125 L 2.546875 -2.921875 C 2.910156 -3.140625 3.164062 -3.328125 3.3125 -3.484375 C 3.550781 -3.710938 3.671875 -3.984375 3.671875 -4.296875 C 3.671875 -4.648438 3.5625 -4.929688 3.34375 -5.140625 C 3.132812 -5.359375 2.847656 -5.46875 2.484375 -5.46875 C 1.960938 -5.46875 1.597656 -5.265625 1.390625 -4.859375 C 1.285156 -4.648438 1.226562 -4.351562 1.21875 -3.96875 L 0.421875 -3.96875 C 0.429688 -4.5 0.53125 -4.9375 0.71875 -5.28125 C 1.050781 -5.875 1.644531 -6.171875 2.5 -6.171875 C 3.195312 -6.171875 3.707031 -5.976562 4.03125 -5.59375 C 4.363281 -5.21875 4.53125 -4.796875 4.53125 -4.328125 C 4.53125 -3.835938 4.351562 -3.414062 4 -3.0625 C 3.800781 -2.863281 3.441406 -2.617188 2.921875 -2.328125 L 2.34375 -2 C 2.0625 -1.84375 1.835938 -1.695312 1.671875 -1.5625 C 1.390625 -1.3125 1.210938 -1.035156 1.140625 -0.734375 L 4.5 -0.734375 L 4.5 0 Z M 0.28125 0 "/>
</g>
<g id="glyph-0-3">
<path d="M 2.90625 -2.171875 L 2.90625 -4.96875 L 0.9375 -2.171875 Z M 2.921875 0 L 2.921875 -1.5 L 0.21875 -1.5 L 0.21875 -2.265625 L 3.046875 -6.171875 L 3.6875 -6.171875 L 3.6875 -2.171875 L 4.59375 -2.171875 L 4.59375 -1.5 L 3.6875 -1.5 L 3.6875 0 Z M 2.921875 0 "/>
</g>
<g id="glyph-0-4">
<path d="M 2.578125 -6.171875 C 3.265625 -6.171875 3.742188 -5.992188 4.015625 -5.640625 C 4.285156 -5.285156 4.421875 -4.921875 4.421875 -4.546875 L 3.65625 -4.546875 C 3.601562 -4.785156 3.53125 -4.972656 3.4375 -5.109375 C 3.25 -5.367188 2.960938 -5.5 2.578125 -5.5 C 2.148438 -5.5 1.804688 -5.296875 1.546875 -4.890625 C 1.296875 -4.492188 1.15625 -3.925781 1.125 -3.1875 C 1.300781 -3.445312 1.523438 -3.640625 1.796875 -3.765625 C 2.046875 -3.878906 2.320312 -3.9375 2.625 -3.9375 C 3.132812 -3.9375 3.582031 -3.769531 3.96875 -3.4375 C 4.351562 -3.113281 4.546875 -2.625 4.546875 -1.96875 C 4.546875 -1.414062 4.363281 -0.921875 4 -0.484375 C 3.632812 -0.0546875 3.117188 0.15625 2.453125 0.15625 C 1.867188 0.15625 1.367188 -0.0625 0.953125 -0.5 C 0.535156 -0.9375 0.328125 -1.671875 0.328125 -2.703125 C 0.328125 -3.460938 0.421875 -4.109375 0.609375 -4.640625 C 0.960938 -5.660156 1.617188 -6.171875 2.578125 -6.171875 Z M 2.515625 -0.53125 C 2.921875 -0.53125 3.222656 -0.664062 3.421875 -0.9375 C 3.628906 -1.207031 3.734375 -1.53125 3.734375 -1.90625 C 3.734375 -2.21875 3.640625 -2.515625 3.453125 -2.796875 C 3.273438 -3.085938 2.953125 -3.234375 2.484375 -3.234375 C 2.148438 -3.234375 1.859375 -3.125 1.609375 -2.90625 C 1.359375 -2.6875 1.234375 -2.351562 1.234375 -1.90625 C 1.234375 -1.519531 1.34375 -1.191406 1.5625 -0.921875 C 1.789062 -0.660156 2.109375 -0.53125 2.515625 -0.53125 Z M 2.515625 -0.53125 "/>
</g>
<g id="glyph-0-5">
<path d="M 0.859375 -6.3125 L 1.734375 -6.3125 L 1.734375 0 L 0.859375 0 Z M 0.859375 -6.3125 "/>
</g>
<g id="glyph-0-6">
<path d="M 1.171875 -6.3125 L 2.984375 -0.9375 L 4.765625 -6.3125 L 5.734375 -6.3125 L 3.421875 0 L 2.515625 0 L 0.21875 -6.3125 Z M 1.171875 -6.3125 "/>
</g>
<g id="glyph-1-0">
<path d="M 0.359375 0 L 0.359375 -7.890625 L 6.625 -7.890625 L 6.625 0 Z M 5.625 -0.984375 L 5.625 -6.90625 L 1.34375 -6.90625 L 1.34375 -0.984375 Z M 5.625 -0.984375 "/>
</g>
<g id="glyph-1-1">
<path d="M 1.28125 -1.8125 C 1.3125 -1.488281 1.394531 -1.238281 1.53125 -1.0625 C 1.769531 -0.75 2.191406 -0.59375 2.796875 -0.59375 C 3.148438 -0.59375 3.460938 -0.671875 3.734375 -0.828125 C 4.003906 -0.984375 4.140625 -1.222656 4.140625 -1.546875 C 4.140625 -1.796875 4.03125 -1.984375 3.8125 -2.109375 C 3.675781 -2.191406 3.398438 -2.285156 2.984375 -2.390625 L 2.21875 -2.578125 C 1.726562 -2.703125 1.367188 -2.835938 1.140625 -2.984375 C 0.722656 -3.253906 0.515625 -3.617188 0.515625 -4.078125 C 0.515625 -4.617188 0.707031 -5.054688 1.09375 -5.390625 C 1.488281 -5.734375 2.019531 -5.90625 2.6875 -5.90625 C 3.550781 -5.90625 4.175781 -5.648438 4.5625 -5.140625 C 4.800781 -4.816406 4.914062 -4.46875 4.90625 -4.09375 L 4 -4.09375 C 3.976562 -4.3125 3.898438 -4.507812 3.765625 -4.6875 C 3.546875 -4.945312 3.160156 -5.078125 2.609375 -5.078125 C 2.242188 -5.078125 1.96875 -5.003906 1.78125 -4.859375 C 1.59375 -4.722656 1.5 -4.539062 1.5 -4.3125 C 1.5 -4.0625 1.625 -3.863281 1.875 -3.71875 C 2.007812 -3.625 2.21875 -3.539062 2.5 -3.46875 L 3.140625 -3.3125 C 3.835938 -3.144531 4.300781 -2.984375 4.53125 -2.828125 C 4.914062 -2.578125 5.109375 -2.191406 5.109375 -1.671875 C 5.109375 -1.148438 4.910156 -0.703125 4.515625 -0.328125 C 4.128906 0.0351562 3.539062 0.21875 2.75 0.21875 C 1.894531 0.21875 1.285156 0.0234375 0.921875 -0.359375 C 0.566406 -0.753906 0.378906 -1.238281 0.359375 -1.8125 Z M 2.71875 -5.890625 Z M 2.71875 -5.890625 "/>
</g>
<g id="glyph-1-2">
<path d="M 0.90625 -7.359375 L 1.875 -7.359375 L 1.875 -5.75 L 2.796875 -5.75 L 2.796875 -4.96875 L 1.875 -4.96875 L 1.875 -1.203125 C 1.875 -1.003906 1.941406 -0.875 2.078125 -0.8125 C 2.160156 -0.769531 2.285156 -0.75 2.453125 -0.75 C 2.503906 -0.75 2.554688 -0.75 2.609375 -0.75 C 2.660156 -0.75 2.722656 -0.753906 2.796875 -0.765625 L 2.796875 0 C 2.679688 0.03125 2.5625 0.0507812 2.4375 0.0625 C 2.320312 0.0820312 2.195312 0.09375 2.0625 0.09375 C 1.613281 0.09375 1.304688 -0.0195312 1.140625 -0.25 C 0.984375 -0.488281 0.90625 -0.789062 0.90625 -1.15625 L 0.90625 -4.96875 L 0.125 -4.96875 L 0.125 -5.75 L 0.90625 -5.75 Z M 0.90625 -7.359375 "/>
</g>
<g id="glyph-1-3">
<path d="M 1.453125 -1.53125 C 1.453125 -1.25 1.550781 -1.023438 1.75 -0.859375 C 1.957031 -0.703125 2.203125 -0.625 2.484375 -0.625 C 2.816406 -0.625 3.144531 -0.703125 3.46875 -0.859375 C 4.007812 -1.117188 4.28125 -1.550781 4.28125 -2.15625 L 4.28125 -2.921875 C 4.15625 -2.847656 4 -2.785156 3.8125 -2.734375 C 3.632812 -2.691406 3.453125 -2.65625 3.265625 -2.625 L 2.6875 -2.5625 C 2.332031 -2.507812 2.066406 -2.4375 1.890625 -2.34375 C 1.597656 -2.164062 1.453125 -1.894531 1.453125 -1.53125 Z M 3.796875 -3.484375 C 4.015625 -3.515625 4.160156 -3.609375 4.234375 -3.765625 C 4.273438 -3.847656 4.296875 -3.972656 4.296875 -4.140625 C 4.296875 -4.460938 4.175781 -4.695312 3.9375 -4.84375 C 3.707031 -5 3.375 -5.078125 2.9375 -5.078125 C 2.4375 -5.078125 2.082031 -4.941406 1.875 -4.671875 C 1.75 -4.515625 1.671875 -4.289062 1.640625 -4 L 0.734375 -4 C 0.753906 -4.707031 0.984375 -5.195312 1.421875 -5.46875 C 1.867188 -5.75 2.382812 -5.890625 2.96875 -5.890625 C 3.644531 -5.890625 4.191406 -5.757812 4.609375 -5.5 C 5.035156 -5.25 5.25 -4.847656 5.25 -4.296875 L 5.25 -0.984375 C 5.25 -0.890625 5.265625 -0.8125 5.296875 -0.75 C 5.335938 -0.6875 5.425781 -0.65625 5.5625 -0.65625 C 5.601562 -0.65625 5.648438 -0.65625 5.703125 -0.65625 C 5.765625 -0.664062 5.820312 -0.675781 5.875 -0.6875 L 5.875 0.03125 C 5.726562 0.0703125 5.613281 0.0976562 5.53125 0.109375 C 5.457031 0.117188 5.351562 0.125 5.21875 0.125 C 4.882812 0.125 4.640625 0.00390625 4.484375 -0.234375 C 4.410156 -0.359375 4.359375 -0.535156 4.328125 -0.765625 C 4.128906 -0.503906 3.84375 -0.28125 3.46875 -0.09375 C 3.101562 0.0898438 2.695312 0.1875 2.25 0.1875 C 1.71875 0.1875 1.28125 0.0234375 0.9375 -0.296875 C 0.601562 -0.617188 0.4375 -1.023438 0.4375 -1.515625 C 0.4375 -2.046875 0.601562 -2.457031 0.9375 -2.75 C 1.269531 -3.039062 1.707031 -3.222656 2.25 -3.296875 Z M 2.984375 -5.890625 Z M 2.984375 -5.890625 "/>
</g>
<g id="glyph-1-4">
<path d="M 2.734375 -5.859375 C 3.191406 -5.859375 3.585938 -5.742188 3.921875 -5.515625 C 4.097656 -5.390625 4.285156 -5.207031 4.484375 -4.96875 L 4.484375 -5.703125 L 5.375 -5.703125 L 5.375 -0.46875 C 5.375 0.257812 5.265625 0.835938 5.046875 1.265625 C 4.648438 2.046875 3.894531 2.4375 2.78125 2.4375 C 2.15625 2.4375 1.628906 2.296875 1.203125 2.015625 C 0.785156 1.734375 0.550781 1.300781 0.5 0.71875 L 1.484375 0.71875 C 1.535156 0.96875 1.628906 1.164062 1.765625 1.3125 C 1.984375 1.53125 2.328125 1.640625 2.796875 1.640625 C 3.535156 1.640625 4.019531 1.375 4.25 0.84375 C 4.382812 0.539062 4.445312 -0.00390625 4.4375 -0.796875 C 4.25 -0.503906 4.015625 -0.285156 3.734375 -0.140625 C 3.460938 -0.00390625 3.109375 0.0625 2.671875 0.0625 C 2.046875 0.0625 1.5 -0.15625 1.03125 -0.59375 C 0.5625 -1.03125 0.328125 -1.757812 0.328125 -2.78125 C 0.328125 -3.75 0.5625 -4.503906 1.03125 -5.046875 C 1.5 -5.585938 2.066406 -5.859375 2.734375 -5.859375 Z M 4.484375 -2.90625 C 4.484375 -3.613281 4.332031 -4.140625 4.03125 -4.484375 C 3.738281 -4.828125 3.367188 -5 2.921875 -5 C 2.234375 -5 1.765625 -4.679688 1.515625 -4.046875 C 1.390625 -3.703125 1.328125 -3.253906 1.328125 -2.703125 C 1.328125 -2.054688 1.457031 -1.5625 1.71875 -1.21875 C 1.976562 -0.882812 2.332031 -0.71875 2.78125 -0.71875 C 3.46875 -0.71875 3.957031 -1.03125 4.25 -1.65625 C 4.40625 -2.007812 4.484375 -2.425781 4.484375 -2.90625 Z M 2.859375 -5.890625 Z M 2.859375 -5.890625 "/>
</g>
<g id="glyph-1-5">
<path d="M 3.109375 -5.875 C 3.515625 -5.875 3.90625 -5.78125 4.28125 -5.59375 C 4.664062 -5.40625 4.960938 -5.15625 5.171875 -4.84375 C 5.359375 -4.5625 5.484375 -4.222656 5.546875 -3.828125 C 5.609375 -3.566406 5.640625 -3.144531 5.640625 -2.5625 L 1.421875 -2.5625 C 1.441406 -1.976562 1.578125 -1.507812 1.828125 -1.15625 C 2.085938 -0.8125 2.488281 -0.640625 3.03125 -0.640625 C 3.539062 -0.640625 3.945312 -0.804688 4.25 -1.140625 C 4.414062 -1.328125 4.535156 -1.550781 4.609375 -1.8125 L 5.5625 -1.8125 C 5.53125 -1.59375 5.441406 -1.351562 5.296875 -1.09375 C 5.160156 -0.832031 5.003906 -0.625 4.828125 -0.46875 C 4.535156 -0.175781 4.175781 0.0195312 3.75 0.125 C 3.507812 0.175781 3.242188 0.203125 2.953125 0.203125 C 2.234375 0.203125 1.625 -0.0546875 1.125 -0.578125 C 0.632812 -1.097656 0.390625 -1.828125 0.390625 -2.765625 C 0.390625 -3.691406 0.640625 -4.441406 1.140625 -5.015625 C 1.640625 -5.585938 2.296875 -5.875 3.109375 -5.875 Z M 4.640625 -3.328125 C 4.609375 -3.753906 4.519531 -4.09375 4.375 -4.34375 C 4.101562 -4.800781 3.660156 -5.03125 3.046875 -5.03125 C 2.597656 -5.03125 2.222656 -4.867188 1.921875 -4.546875 C 1.628906 -4.234375 1.472656 -3.828125 1.453125 -3.328125 Z M 3.015625 -5.890625 Z M 3.015625 -5.890625 "/>
</g>
<g id="glyph-2-0">
<path d="M 0 -0.359375 L -7.890625 -0.359375 L -7.890625 -6.625 L 0 -6.625 Z M -0.984375 -5.625 L -6.90625 -5.625 L -6.90625 -1.34375 L -0.984375 -1.34375 Z M -0.984375 -5.625 "/>
</g>
<g id="glyph-2-1">
<path d="M -5.921875 -2.921875 C -5.921875 -3.578125 -5.757812 -4.109375 -5.4375 -4.515625 C -5.125 -4.921875 -4.582031 -5.164062 -3.8125 -5.25 L -3.8125 -4.296875 C -4.164062 -4.242188 -4.457031 -4.113281 -4.6875 -3.90625 C -4.925781 -3.707031 -5.046875 -3.378906 -5.046875 -2.921875 C -5.046875 -2.304688 -4.75 -1.867188 -4.15625 -1.609375 C -3.757812 -1.429688 -3.273438 -1.34375 -2.703125 -1.34375 C -2.128906 -1.34375 -1.644531 -1.460938 -1.25 -1.703125 C -0.851562 -1.953125 -0.65625 -2.335938 -0.65625 -2.859375 C -0.65625 -3.265625 -0.773438 -3.582031 -1.015625 -3.8125 C -1.265625 -4.050781 -1.601562 -4.210938 -2.03125 -4.296875 L -2.03125 -5.25 C -1.269531 -5.132812 -0.710938 -4.863281 -0.359375 -4.4375 C -0.00390625 -4.007812 0.171875 -3.457031 0.171875 -2.78125 C 0.171875 -2.03125 -0.101562 -1.429688 -0.65625 -0.984375 C -1.207031 -0.535156 -1.894531 -0.3125 -2.71875 -0.3125 C -3.726562 -0.3125 -4.515625 -0.554688 -5.078125 -1.046875 C -5.640625 -1.535156 -5.921875 -2.160156 -5.921875 -2.921875 Z M -5.890625 -2.78125 Z M -5.890625 -2.78125 "/>
</g>
<g id="glyph-2-2">
<path d="M -0.625 -2.984375 C -0.625 -3.628906 -0.863281 -4.070312 -1.34375 -4.3125 C -1.832031 -4.550781 -2.375 -4.671875 -2.96875 -4.671875 C -3.507812 -4.671875 -3.945312 -4.582031 -4.28125 -4.40625 C -4.8125 -4.132812 -5.078125 -3.664062 -5.078125 -3 C -5.078125 -2.40625 -4.847656 -1.972656 -4.390625 -1.703125 C -3.941406 -1.441406 -3.398438 -1.3125 -2.765625 -1.3125 C -2.148438 -1.3125 -1.640625 -1.441406 -1.234375 -1.703125 C -0.828125 -1.972656 -0.625 -2.398438 -0.625 -2.984375 Z M -5.921875 -3.03125 C -5.921875 -3.769531 -5.671875 -4.394531 -5.171875 -4.90625 C -4.679688 -5.414062 -3.957031 -5.671875 -3 -5.671875 C -2.070312 -5.671875 -1.304688 -5.445312 -0.703125 -5 C -0.0976562 -4.550781 0.203125 -3.851562 0.203125 -2.90625 C 0.203125 -2.113281 -0.0625 -1.484375 -0.59375 -1.015625 C -1.125 -0.546875 -1.84375 -0.3125 -2.75 -0.3125 C -3.71875 -0.3125 -4.488281 -0.554688 -5.0625 -1.046875 C -5.632812 -1.535156 -5.921875 -2.195312 -5.921875 -3.03125 Z M -5.890625 -3 Z M -5.890625 -3 "/>
</g>
<g id="glyph-2-3">
<path d="M -5.75 -1.671875 L -1.9375 -1.671875 C -1.644531 -1.671875 -1.40625 -1.71875 -1.21875 -1.8125 C -0.875 -1.988281 -0.703125 -2.3125 -0.703125 -2.78125 C -0.703125 -3.445312 -1 -3.90625 -1.59375 -4.15625 C -1.914062 -4.28125 -2.359375 -4.34375 -2.921875 -4.34375 L -5.75 -4.34375 L -5.75 -5.3125 L 0 -5.3125 L 0 -4.40625 L -0.84375 -4.421875 C -0.625 -4.296875 -0.441406 -4.140625 -0.296875 -3.953125 C 0.00390625 -3.578125 0.15625 -3.128906 0.15625 -2.609375 C 0.15625 -1.785156 -0.117188 -1.222656 -0.671875 -0.921875 C -0.960938 -0.765625 -1.351562 -0.6875 -1.84375 -0.6875 L -5.75 -0.6875 Z M -5.890625 -3 Z M -5.890625 -3 "/>
</g>
<g id="glyph-2-4">
<path d="M -5.75 -0.703125 L -5.75 -1.625 L -4.9375 -1.625 C -5.269531 -1.894531 -5.507812 -2.179688 -5.65625 -2.484375 C -5.800781 -2.796875 -5.875 -3.132812 -5.875 -3.5 C -5.875 -4.320312 -5.59375 -4.875 -5.03125 -5.15625 C -4.71875 -5.3125 -4.269531 -5.390625 -3.6875 -5.390625 L 0 -5.390625 L 0 -4.421875 L -3.625 -4.421875 C -3.976562 -4.421875 -4.257812 -4.367188 -4.46875 -4.265625 C -4.832031 -4.085938 -5.015625 -3.773438 -5.015625 -3.328125 C -5.015625 -3.097656 -4.988281 -2.910156 -4.9375 -2.765625 C -4.863281 -2.492188 -4.707031 -2.257812 -4.46875 -2.0625 C -4.28125 -1.90625 -4.082031 -1.800781 -3.875 -1.75 C -3.675781 -1.695312 -3.390625 -1.671875 -3.015625 -1.671875 L 0 -1.671875 L 0 -0.703125 Z M -5.890625 -2.984375 Z M -5.890625 -2.984375 "/>
</g>
<g id="glyph-2-5">
<path d="M -7.359375 -0.90625 L -7.359375 -1.875 L -5.75 -1.875 L -5.75 -2.796875 L -4.96875 -2.796875 L -4.96875 -1.875 L -1.203125 -1.875 C -1.003906 -1.875 -0.875 -1.941406 -0.8125 -2.078125 C -0.769531 -2.160156 -0.75 -2.285156 -0.75 -2.453125 C -0.75 -2.503906 -0.75 -2.554688 -0.75 -2.609375 C -0.75 -2.660156 -0.753906 -2.722656 -0.765625 -2.796875 L 0 -2.796875 C 0.03125 -2.679688 0.0507812 -2.5625 0.0625 -2.4375 C 0.0820312 -2.320312 0.09375 -2.195312 0.09375 -2.0625 C 0.09375 -1.613281 -0.0195312 -1.304688 -0.25 -1.140625 C -0.488281 -0.984375 -0.789062 -0.90625 -1.15625 -0.90625 L -4.96875 -0.90625 L -4.96875 -0.125 L -5.75 -0.125 L -5.75 -0.90625 Z M -7.359375 -0.90625 "/>
</g>
</g>
<clipPath id="clip-0">
<path clip-rule="nonzero" d="M 34.152344 5.480469 L 445.84375 5.480469 L 445.84375 470.851562 L 34.152344 470.851562 Z M 34.152344 5.480469 "/>
</clipPath>
<clipPath id="clip-1">
<path clip-rule="nonzero" d="M 34.152344 380 L 445.84375 380 L 445.84375 381 L 34.152344 381 Z M 34.152344 380 "/>
</clipPath>
<clipPath id="clip-2">
<path clip-rule="nonzero" d="M 34.152344 241 L 445.84375 241 L 445.84375 242 L 34.152344 242 Z M 34.152344 241 "/>
</clipPath>
<clipPath id="clip-3">
<path clip-rule="nonzero" d="M 34.152344 102 L 445.84375 102 L 445.84375 104 L 34.152344 104 Z M 34.152344 102 "/>
</clipPath>
<clipPath id="clip-4">
<path clip-rule="nonzero" d="M 34.152344 449 L 445.84375 449 L 445.84375 451 L 34.152344 451 Z M 34.152344 449 "/>
</clipPath>
<clipPath id="clip-5">
<path clip-rule="nonzero" d="M 34.152344 310 L 445.84375 310 L 445.84375 312 L 34.152344 312 Z M 34.152344 310 "/>
</clipPath>
<clipPath id="clip-6">
<path clip-rule="nonzero" d="M 34.152344 171 L 445.84375 171 L 445.84375 173 L 34.152344 173 Z M 34.152344 171 "/>
</clipPath>
<clipPath id="clip-7">
<path clip-rule="nonzero" d="M 34.152344 33 L 445.84375 33 L 445.84375 35 L 34.152344 35 Z M 34.152344 33 "/>
</clipPath>
<clipPath id="clip-8">
<path clip-rule="nonzero" d="M 92 5.480469 L 94 5.480469 L 94 470.851562 L 92 470.851562 Z M 92 5.480469 "/>
</clipPath>
<clipPath id="clip-9">
<path clip-rule="nonzero" d="M 190 5.480469 L 192 5.480469 L 192 470.851562 L 190 470.851562 Z M 190 5.480469 "/>
</clipPath>
<clipPath id="clip-10">
<path clip-rule="nonzero" d="M 288 5.480469 L 290 5.480469 L 290 470.851562 L 288 470.851562 Z M 288 5.480469 "/>
</clipPath>
<clipPath id="clip-11">
<path clip-rule="nonzero" d="M 386 5.480469 L 388 5.480469 L 388 470.851562 L 386 470.851562 Z M 386 5.480469 "/>
</clipPath>
</defs>
<rect x="-50.4" y="-50.4" width="604.8" height="604.8" fill="rgb(100%, 100%, 100%)" fill-opacity="1"/>
<rect x="-50.4" y="-50.4" width="604.8" height="604.8" fill="rgb(100%, 100%, 100%)" fill-opacity="1"/>
<path fill="none" stroke-width="1.066978" stroke-linecap="round" stroke-linejoin="round" stroke="rgb(100%, 100%, 100%)" stroke-opacity="1" stroke-miterlimit="10" d="M 0 504 L 504 504 L 504 0 L 0 0 Z M 0 504 "/>
<g clip-path="url(#clip-0)">
<path fill-rule="nonzero" fill="rgb(92.156863%, 92.156863%, 92.156863%)" fill-opacity="1" d="M 34.152344 470.847656 L 445.84375 470.847656 L 445.84375 5.476562 L 34.152344 5.476562 Z M 34.152344 470.847656 "/>
</g>
<g clip-path="url(#clip-1)">
<path fill="none" stroke-width="0.533489" stroke-linecap="butt" stroke-linejoin="round" stroke="rgb(100%, 100%, 100%)" stroke-opacity="1" stroke-miterlimit="10" d="M 34.152344 380.339844 L 445.84375 380.339844 "/>
</g>
<g clip-path="url(#clip-2)">
<path fill="none" stroke-width="0.533489" stroke-linecap="butt" stroke-linejoin="round" stroke="rgb(100%, 100%, 100%)" stroke-opacity="1" stroke-miterlimit="10" d="M 34.152344 241.632812 L 445.84375 241.632812 "/>
</g>
<g clip-path="url(#clip-3)">
<path fill="none" stroke-width="0.533489" stroke-linecap="butt" stroke-linejoin="round" stroke="rgb(100%, 100%, 100%)" stroke-opacity="1" stroke-miterlimit="10" d="M 34.152344 102.921875 L 445.84375 102.921875 "/>
</g>
<g clip-path="url(#clip-4)">
<path fill="none" stroke-width="1.066978" stroke-linecap="butt" stroke-linejoin="round" stroke="rgb(100%, 100%, 100%)" stroke-opacity="1" stroke-miterlimit="10" d="M 34.152344 449.695312 L 445.84375 449.695312 "/>
</g>
<g clip-path="url(#clip-5)">
<path fill="none" stroke-width="1.066978" stroke-linecap="butt" stroke-linejoin="round" stroke="rgb(100%, 100%, 100%)" stroke-opacity="1" stroke-miterlimit="10" d="M 34.152344 310.988281 L 445.84375 310.988281 "/>
</g>
<g clip-path="url(#clip-6)">
<path fill="none" stroke-width="1.066978" stroke-linecap="butt" stroke-linejoin="round" stroke="rgb(100%, 100%, 100%)" stroke-opacity="1" stroke-miterlimit="10" d="M 34.152344 172.277344 L 445.84375 172.277344 "/>
</g>
<g clip-path="url(#clip-7)">
<path fill="none" stroke-width="1.066978" stroke-linecap="butt" stroke-linejoin="round" stroke="rgb(100%, 100%, 100%)" stroke-opacity="1" stroke-miterlimit="10" d="M 34.152344 33.566406 L 445.84375 33.566406 "/>
</g>
<g clip-path="url(#clip-8)">
<path fill="none" stroke-width="1.066978" stroke-linecap="butt" stroke-linejoin="round" stroke="rgb(100%, 100%, 100%)" stroke-opacity="1" stroke-miterlimit="10" d="M 92.964844 470.847656 L 92.964844 5.480469 "/>
</g>
<g clip-path="url(#clip-9)">
<path fill="none" stroke-width="1.066978" stroke-linecap="butt" stroke-linejoin="round" stroke="rgb(100%, 100%, 100%)" stroke-opacity="1" stroke-miterlimit="10" d="M 190.984375 470.847656 L 190.984375 5.480469 "/>
</g>
<g clip-path="url(#clip-10)">
<path fill="none" stroke-width="1.066978" stroke-linecap="butt" stroke-linejoin="round" stroke="rgb(100%, 100%, 100%)" stroke-opacity="1" stroke-miterlimit="10" d="M 289.007812 470.847656 L 289.007812 5.480469 "/>
</g>
<g clip-path="url(#clip-11)">
<path fill="none" stroke-width="1.066978" stroke-linecap="butt" stroke-linejoin="round" stroke="rgb(100%, 100%, 100%)" stroke-opacity="1" stroke-miterlimit="10" d="M 387.03125 470.847656 L 387.03125 5.480469 "/>
</g>
<path fill-rule="nonzero" fill="rgb(97.254902%, 46.27451%, 42.745098%)" fill-opacity="1" d="M 48.855469 449.695312 L 137.074219 449.695312 L 137.074219 158.40625 L 48.855469 158.40625 Z M 48.855469 449.695312 "/>
<path fill-rule="nonzero" fill="rgb(48.627451%, 68.235294%, 0%)" fill-opacity="1" d="M 146.875 449.695312 L 235.09375 449.695312 L 235.09375 26.632812 L 146.875 26.632812 Z M 146.875 449.695312 "/>
<path fill-rule="nonzero" fill="rgb(0%, 74.901961%, 76.862745%)" fill-opacity="1" d="M 244.898438 449.695312 L 333.117188 449.695312 L 333.117188 179.210938 L 244.898438 179.210938 Z M 244.898438 449.695312 "/>
<path fill-rule="nonzero" fill="rgb(78.039216%, 48.627451%, 100%)" fill-opacity="1" d="M 342.921875 449.695312 L 431.140625 449.695312 L 431.140625 324.855469 L 342.921875 324.855469 Z M 342.921875 449.695312 "/>
<g fill="rgb(30.196078%, 30.196078%, 30.196078%)" fill-opacity="1">
<use xlink:href="#glyph-0-1" x="24.21875" y="452.97168"/>
</g>
<g fill="rgb(30.196078%, 30.196078%, 30.196078%)" fill-opacity="1">
<use xlink:href="#glyph-0-2" x="19.21875" y="314.264648"/>
<use xlink:href="#glyph-0-1" x="24.21875" y="314.264648"/>
</g>
<g fill="rgb(30.196078%, 30.196078%, 30.196078%)" fill-opacity="1">
<use xlink:href="#glyph-0-3" x="19.21875" y="175.553711"/>
<use xlink:href="#glyph-0-1" x="24.21875" y="175.553711"/>
</g>
<g fill="rgb(30.196078%, 30.196078%, 30.196078%)" fill-opacity="1">
<use xlink:href="#glyph-0-4" x="19.21875" y="36.842773"/>
<use xlink:href="#glyph-0-1" x="24.21875" y="36.842773"/>
</g>
<path fill="none" stroke-width="1.066978" stroke-linecap="butt" stroke-linejoin="round" stroke="rgb(20%, 20%, 20%)" stroke-opacity="1" stroke-miterlimit="10" d="M 31.410156 449.695312 L 34.152344 449.695312 "/>
<path fill="none" stroke-width="1.066978" stroke-linecap="butt" stroke-linejoin="round" stroke="rgb(20%, 20%, 20%)" stroke-opacity="1" stroke-miterlimit="10" d="M 31.410156 310.988281 L 34.152344 310.988281 "/>
<path fill="none" stroke-width="1.066978" stroke-linecap="butt" stroke-linejoin="round" stroke="rgb(20%, 20%, 20%)" stroke-opacity="1" stroke-miterlimit="10" d="M 31.410156 172.277344 L 34.152344 172.277344 "/>
<path fill="none" stroke-width="1.066978" stroke-linecap="butt" stroke-linejoin="round" stroke="rgb(20%, 20%, 20%)" stroke-opacity="1" stroke-miterlimit="10" d="M 31.410156 33.566406 L 34.152344 33.566406 "/>
<path fill="none" stroke-width="1.066978" stroke-linecap="butt" stroke-linejoin="round" stroke="rgb(20%, 20%, 20%)" stroke-opacity="1" stroke-miterlimit="10" d="M 92.964844 473.589844 L 92.964844 470.847656 "/>
<path fill="none" stroke-width="1.066978" stroke-linecap="butt" stroke-linejoin="round" stroke="rgb(20%, 20%, 20%)" stroke-opacity="1" stroke-miterlimit="10" d="M 190.984375 473.589844 L 190.984375 470.847656 "/>
<path fill="none" stroke-width="1.066978" stroke-linecap="butt" stroke-linejoin="round" stroke="rgb(20%, 20%, 20%)" stroke-opacity="1" stroke-miterlimit="10" d="M 289.007812 473.589844 L 289.007812 470.847656 "/>
<path fill="none" stroke-width="1.066978" stroke-linecap="butt" stroke-linejoin="round" stroke="rgb(20%, 20%, 20%)" stroke-opacity="1" stroke-miterlimit="10" d="M 387.03125 473.589844 L 387.03125 470.847656 "/>
<g fill="rgb(30.196078%, 30.196078%, 30.196078%)" fill-opacity="1">
<use xlink:href="#glyph-0-5" x="91.964844" y="482.557617"/>
</g>
<g fill="rgb(30.196078%, 30.196078%, 30.196078%)" fill-opacity="1">
<use xlink:href="#glyph-0-5" x="188.984375" y="482.557617"/>
<use xlink:href="#glyph-0-5" x="190.984375" y="482.557617"/>
</g>
<g fill="rgb(30.196078%, 30.196078%, 30.196078%)" fill-opacity="1">
<use xlink:href="#glyph-0-5" x="286.007812" y="482.557617"/>
<use xlink:href="#glyph-0-5" x="288.007812" y="482.557617"/>
<use xlink:href="#glyph-0-5" x="290.007812" y="482.557617"/>
</g>
<g fill="rgb(30.196078%, 30.196078%, 30.196078%)" fill-opacity="1">
<use xlink:href="#glyph-0-5" x="383.03125" y="482.557617"/>
<use xlink:href="#glyph-0-6" x="385.03125" y="482.557617"/>
</g>
<g fill="rgb(0%, 0%, 0%)" fill-opacity="1">
<use xlink:href="#glyph-1-1" x="226.496094" y="494.990234"/>
<use xlink:href="#glyph-1-2" x="232.496094" y="494.990234"/>
<use xlink:href="#glyph-1-3" x="235.496094" y="494.990234"/>
<use xlink:href="#glyph-1-4" x="241.496094" y="494.990234"/>
<use xlink:href="#glyph-1-5" x="247.496094" y="494.990234"/>
</g>
<g fill="rgb(0%, 0%, 0%)" fill-opacity="1">
<use xlink:href="#glyph-2-1" x="12.951172" y="251.664062"/>
<use xlink:href="#glyph-2-2" x="12.951172" y="245.664062"/>
<use xlink:href="#glyph-2-3" x="12.951172" y="239.664062"/>
<use xlink:href="#glyph-2-4" x="12.951172" y="233.664062"/>
<use xlink:href="#glyph-2-5" x="12.951172" y="227.664062"/>
</g>
<path fill-rule="nonzero" fill="rgb(100%, 100%, 100%)" fill-opacity="1" d="M 456.800781 286.445312 L 498.519531 286.445312 L 498.519531 189.886719 L 456.800781 189.886719 Z M 456.800781 286.445312 "/>
<g fill="rgb(0%, 0%, 0%)" fill-opacity="1">
<use xlink:href="#glyph-1-1" x="462.28125" y="204.333984"/>
<use xlink:href="#glyph-1-2" x="468.28125" y="204.333984"/>
<use xlink:href="#glyph-1-3" x="471.28125" y="204.333984"/>
<use xlink:href="#glyph-1-4" x="477.28125" y="204.333984"/>
<use xlink:href="#glyph-1-5" x="483.28125" y="204.333984"/>
</g>
<path fill-rule="nonzero" fill="rgb(92.156863%, 92.156863%, 92.156863%)" fill-opacity="1" d="M 462.28125 229.125 L 479.5625 229.125 L 479.5625 211.84375 L 462.28125 211.84375 Z M 462.28125 229.125 "/>
<path fill-rule="nonzero" fill="rgb(97.254902%, 46.27451%, 42.745098%)" fill-opacity="1" d="M 462.992188 228.414062 L 478.855469 228.414062 L 478.855469 212.550781 L 462.992188 212.550781 Z M 462.992188 228.414062 "/>
<path fill-rule="nonzero" fill="rgb(92.156863%, 92.156863%, 92.156863%)" fill-opacity="1" d="M 462.28125 246.402344 L 479.5625 246.402344 L 479.5625 229.121094 L 462.28125 229.121094 Z M 462.28125 246.402344 "/>
<path fill-rule="nonzero" fill="rgb(48.627451%, 68.235294%, 0%)" fill-opacity="1" d="M 462.992188 245.695312 L 478.855469 245.695312 L 478.855469 229.832031 L 462.992188 229.832031 Z M 462.992188 245.695312 "/>
<path fill-rule="nonzero" fill="rgb(92.156863%, 92.156863%, 92.156863%)" fill-opacity="1" d="M 462.28125 263.683594 L 479.5625 263.683594 L 479.5625 246.402344 L 462.28125 246.402344 Z M 462.28125 263.683594 "/>
<path fill-rule="nonzero" fill="rgb(0%, 74.901961%, 76.862745%)" fill-opacity="1" d="M 462.992188 262.976562 L 478.855469 262.976562 L 478.855469 247.113281 L 462.992188 247.113281 Z M 462.992188 262.976562 "/>
<path fill-rule="nonzero" fill="rgb(92.156863%, 92.156863%, 92.156863%)" fill-opacity="1" d="M 462.28125 280.964844 L 479.5625 280.964844 L 479.5625 263.683594 L 462.28125 263.683594 Z M 462.28125 280.964844 "/>
<path fill-rule="nonzero" fill="rgb(78.039216%, 48.627451%, 100%)" fill-opacity="1" d="M 462.992188 280.253906 L 478.855469 280.253906 L 478.855469 264.390625 L 462.992188 264.390625 Z M 462.992188 280.253906 "/>
<g fill="rgb(0%, 0%, 0%)" fill-opacity="1">
<use xlink:href="#glyph-0-5" x="485.042969" y="223.760742"/>
</g>
<g fill="rgb(0%, 0%, 0%)" fill-opacity="1">
<use xlink:href="#glyph-0-5" x="485.042969" y="241.041992"/>
<use xlink:href="#glyph-0-5" x="487.042969" y="241.041992"/>
</g>
<g fill="rgb(0%, 0%, 0%)" fill-opacity="1">
<use xlink:href="#glyph-0-5" x="485.042969" y="258.319336"/>
<use xlink:href="#glyph-0-5" x="487.042969" y="258.319336"/>
<use xlink:href="#glyph-0-5" x="489.042969" y="258.319336"/>
</g>
<g fill="rgb(0%, 0%, 0%)" fill-opacity="1">
<use xlink:href="#glyph-0-5" x="485.042969" y="275.600586"/>
<use xlink:href="#glyph-0-6" x="487.042969" y="275.600586"/>
</g>
</svg>
